#!OML:ASF I:\Actors\actors\Patient Classification 2\Patient 1\Session 1\actor1.ASF
:FULLY-SPECIFIED
:DEGREES
784
root -0.315374 18.2696 5.56948 -8.17812 7.83425 -1.3902
lowerback 12.7405 -0.821411 7.9469
upperback 3.66331 0.167147 5.32419
thorax -3.27362 0.0680988 1.09096
lowerneck -3.80519 -4.74044 -5.06727
upperneck 11.7131 -5.44931 -4.583
head 4.58516 -3.125 -0.941815
rclavicle 7.7526e-015 -4.45278e-014
rhumerus 15.3017 15.1272 -63.0848
rradius 71.6162
rwrist -19.7596
rhand -13.4884 -52.1068
rfingers 7.12502
rthumb 12.6224 -81.7054
lclavicle 7.7526e-015 -4.45278e-014
lhumerus 26.6453 -28.5373 69.7621
lradius 68.271
lwrist 13.1325
lhand -19.4425 -22.2593
lfingers 7.12502
lthumb 6.87804 7.60901
rfemur 12.4699 -5.83086 13.0533
rtibia 12.9855
rfoot -21.7575 -8.71027
rtoes -11.1433
lfemur -5.2996 1.12373 -16.9654
ltibia 36.0859
lfoot -22.3518 4.5874
ltoes -55.098
785
root -0.316981 18.265 5.5691 -8.32151 7.51981 -1.4142
lowerback 12.6469 -0.806936 7.81095
upperback 3.68678 0.148397 5.19148
thorax -3.19882 0.0609069 1.02775
lowerneck -3.84828 -4.57738 -4.79523
upperneck 11.7497 -5.24212 -4.63371
head 4.5953 -3.01539 -0.996895
rclavicle -4.8901e-014 -4.45278e-014
rhumerus 16.5484 16.3634 -62.7119
rradius 71.3385
rwrist -17.3688
rhand -13.6325 -50.9144
rfingers 7.12502
rthumb 12.4835 -80.5216
lclavicle -4.8901e-014 -4.45278e-014
lhumerus 26.5716 -28.4894 69.9459
lradius 67.9985
lwrist 13.1733
lhand -19.467 -22.265
lfingers 7.12502
lthumb 6.85435 7.60403
rfemur 12.4095 -5.64369 13.0974
rtibia 13.2757
rfoot -21.7284 -8.59444
rtoes -11.6994
lfemur -5.10436 1.2244 -16.9213
ltibia 36.1066
lfoot -22.5316 4.73564
ltoes -55.0883
786
root -0.311631 18.2609 5.56346 -8.33697 7.10782 -1.40367
lowerback 12.4486 -0.70898 7.53814
upperback 3.70397 0.216617 5.18598
thorax -3.07185 0.0978471 1.16055
lowerneck -3.89827 -4.45324 -4.73259
upperneck 11.7594 -5.06851 -4.70329
head 4.60484 -2.93171 -1.02379
rclavicle 9.14409e-015 -4.29375e-014
rhumerus 17.8836 17.7515 -61.811
rradius 71.1115
rwrist -15.9679
rhand -14.6303 -50.212
rfingers 7.12502
rthumb 11.5213 -79.8754
lclavicle 9.14409e-015 -4.29375e-014
lhumerus 26.4661 -28.3456 70.4101
lradius 67.7762
lwrist 13.1805
lhand -19.5716 -22.2688
lfingers 7.12502
lthumb 6.75341 7.60354
rfemur 12.2185 -5.50304 13.0649
rtibia 13.4635
rfoot -21.5795 -8.41026
rtoes -12.0145
lfemur -5.05353 1.35519 -16.9557
ltibia 36.119
lfoot -22.665 5.08408
ltoes -55.2007
787
root -0.294348 18.2584 5.54981 -8.18183 6.5072 -1.41467
lowerback 12.1958 -0.543627 7.43946
upperback 3.66756 0.392911 5.15174
thorax -2.96671 0.18631 1.15115
lowerneck -4.049 -4.36566 -4.74423
upperneck 11.851 -4.93686 -4.68653
head 4.67028 -2.87083 -1.01656
rclavicle 1.98785e-015 3.33958e-014
rhumerus 19.1454 19.0981 -60.6604
rradius 71.0061
rwrist -15.0862
rhand -15.471 -49.8548
rfingers 7.12502
rthumb 10.7105 -79.5617
lclavicle 1.98785e-015 3.33958e-014
lhumerus 26.3511 -28.2209 70.9344
lradius 67.5691
lwrist 13.2245
lhand -19.6246 -22.1859
lfingers 7.12502
lthumb 6.70221 7.68801
rfemur 11.7572 -5.39801 12.9911
rtibia 13.621
rfoot -21.2512 -8.08215
rtoes -12.138
lfemur -5.22546 1.56597 -17.0261
ltibia 36.1387
lfoot -22.7652 5.59531
ltoes -55.3526
788
root -0.320568 18.2543 5.56532 -8.50673 6.48998 -1.46656
lowerback 11.9809 -0.499928 6.69313
upperback 3.81269 0.329785 5.26912
thorax -2.70665 0.162656 1.69596
lowerneck -4.26243 -4.25787 -4.73186
upperneck 12.0037 -4.77827 -4.62235
head 4.7718 -2.79547 -0.99931
rclavicle -1.05356e-014 -3.18055e-015
rhumerus 20.3038 20.251 -59.4291
rradius 70.9509
rwrist -13.4122
rhand -15.6975 -48.7563
rfingers 7.12502
rthumb 10.492 -78.4745
lclavicle -1.05356e-014 -3.18055e-015
lhumerus 26.2596 -28.0895 71.4827
lradius 67.3542
lwrist 13.3521
lhand -19.6579 -22.0779
lfingers 7.12502
lthumb 6.67004 7.79704
rfemur 12.1307 -5.16412 13.2016
rtibia 13.7605
rfoot -21.6114 -8.09187
rtoes -11.9437
lfemur -4.78264 1.70576 -16.7992
ltibia 36.123
lfoot -22.842 5.45857
ltoes -55.553
789
root -0.33216 18.2506 5.5705 -8.66238 6.28455 -1.4366
lowerback 11.7748 -0.43609 6.11357
upperback 3.9001 0.318894 5.3103
thorax -2.50808 0.160668 2.06152
lowerneck -4.44791 -4.10593 -4.64888
upperneck 12.1004 -4.56462 -4.61541
head 4.84325 -2.69104 -1.00766
rclavicle -1.92821e-014 4.6118e-014
rhumerus 21.4659 21.3243 -58.2323
rradius 70.8951
rwrist -10.9968
rhand -15.9048 -47.3958
rfingers 7.12502
rthumb 10.292 -77.124
lclavicle -1.92821e-014 4.6118e-014
lhumerus 26.1159 -27.858 72.0465
lradius 67.1596
lwrist 13.4752
lhand -19.8065 -22.0513
lfingers 7.12502
lthumb 6.52658 7.82815
rfemur 12.2459 -4.9979 13.2333
rtibia 13.8466
rfoot -21.6527 -8.02621
rtoes -11.9011
lfemur -4.53637 1.78549 -16.7622
ltibia 36.1028
lfoot -22.9223 5.57644
ltoes -55.5991
